# xmcd
#
# Track frame offsets: 
#        150
#        19245
#        42532
#        54712
#        82807
#        100010
#        119907
#        132432
#        150447
#        169225
#        188302
#        220022
#        235170
#        250772
#        271372
#
# Disc length: 3892 seconds
#
# Revision: 11
# Processed by: cddbd v1.5.2PL0 Copyright (c) Steve Scherf et al.
# Submitted via: ExactAudioCopy v1.0b4
#
DISCID=c70f320f
DTITLE=Various Artist - A Cold Shot Of Good Whiskey Blues
DYEAR=1996
DGENRE=Blues
TTITLE0=Steve Bassett - Steve Bassett - Poor Of Me
TTITLE1=Vickie Carrico - Vickie Carrico - Let Love Make It Right
TTITLE2=Chip Vandiver - Chip Vandiver - Head On Collision
TTITLE3=Son Phillips And The Hounds - Son Phillips And The Hounds - Ap
TTITLE3=ril Fool
TTITLE4=Blue Rain - Blue Rain - Backslidin'
TTITLE5=Mississippi Millie McLaine - Mississippi Millie McLaine - You 
TTITLE5=Pick That Thing Baby
TTITLE6=Big Al and The Heavyweighter - Big Al and The Heavyweighter - Zyde
TTITLE6=coco
TTITLE7=Vickie Carrico - Vickie Carrico - Hello Darkness
TTITLE8=Richard Waters with Larry Burton - Richard Waters with Larry B
TTITLE8=urton - Please Set A Date
TTITLE9=Tim Gonzales - Tim Gonzales - Summertime
TTITLE10=Mississippi Millie McLaine - Mississippi Millie McLaine - Ret
TTITLE10=ribution
TTITLE11=Chick French - Chick French - Lowdown and Dirty
TTITLE12=Big Dawgs - Big Dawgs - One More Train
TTITLE13=Bobby Little - Bobby Little - Tears I Cried
TTITLE14=Steve Bassett - Steve Bassett - Jesus Just Left Chicago
EXTD=YEAR: 1996 ID3G: 0
EXTT0=
EXTT1=
EXTT2=
EXTT3=
EXTT4=
EXTT5=
EXTT6=
EXTT7=
EXTT8=
EXTT9=
EXTT10=
EXTT11=
EXTT12=
EXTT13=
EXTT14=
PLAYORDER=
